<mxfile host="app.diagrams.net" modified="2023-08-28T03:16:35.068Z" agent="Mozilla/5.0 (Macintosh; Intel Mac OS X 10_15_7) AppleWebKit/537.36 (KHTML, like Gecko) Chrome/116.0.0.0 Safari/537.36" etag="ODX75QVx2koxZe2tM_hb" version="21.6.9" type="device">
  <diagram name="Page-1" id="y3u43kzO-Fb6fuKs01tN">
    <mxGraphModel dx="5170" dy="2550" grid="1" gridSize="10" guides="1" tooltips="1" connect="1" arrows="1" fold="1" page="1" pageScale="1" pageWidth="2339" pageHeight="3300" math="0" shadow="0">
      <root>
        <mxCell id="0" />
        <mxCell id="1" parent="0" />
        <mxCell id="YbW9ss1DQaH2BDNnPhTK-124" value="" style="rounded=1;whiteSpace=wrap;html=1;fillColor=#e1d5e7;strokeColor=#9673a6;" vertex="1" parent="1">
          <mxGeometry x="412" y="640" width="1515" height="930" as="geometry" />
        </mxCell>
        <mxCell id="YbW9ss1DQaH2BDNnPhTK-143" style="edgeStyle=orthogonalEdgeStyle;rounded=0;orthogonalLoop=1;jettySize=auto;html=1;" edge="1" parent="1" source="YbW9ss1DQaH2BDNnPhTK-119" target="YbW9ss1DQaH2BDNnPhTK-125">
          <mxGeometry relative="1" as="geometry" />
        </mxCell>
        <mxCell id="YbW9ss1DQaH2BDNnPhTK-119" value="" style="rounded=1;whiteSpace=wrap;html=1;fillColor=#f5f5f5;fontColor=#333333;strokeColor=#666666;" vertex="1" parent="1">
          <mxGeometry x="1423.72" y="310" width="160" height="190" as="geometry" />
        </mxCell>
        <mxCell id="YbW9ss1DQaH2BDNnPhTK-120" value="Services" style="text;html=1;strokeColor=none;fillColor=none;align=center;verticalAlign=middle;whiteSpace=wrap;rounded=0;" vertex="1" parent="1">
          <mxGeometry x="1447.47" y="320" width="117.5" height="30" as="geometry" />
        </mxCell>
        <mxCell id="YbW9ss1DQaH2BDNnPhTK-142" style="edgeStyle=orthogonalEdgeStyle;rounded=0;orthogonalLoop=1;jettySize=auto;html=1;" edge="1" parent="1" source="YbW9ss1DQaH2BDNnPhTK-111" target="YbW9ss1DQaH2BDNnPhTK-119">
          <mxGeometry relative="1" as="geometry" />
        </mxCell>
        <mxCell id="YbW9ss1DQaH2BDNnPhTK-111" value="" style="rounded=1;whiteSpace=wrap;html=1;fillColor=#e1d5e7;strokeColor=#9673a6;" vertex="1" parent="1">
          <mxGeometry x="1176.5" y="270" width="160" height="270" as="geometry" />
        </mxCell>
        <mxCell id="YbW9ss1DQaH2BDNnPhTK-141" style="edgeStyle=orthogonalEdgeStyle;rounded=0;orthogonalLoop=1;jettySize=auto;html=1;entryX=0;entryY=0.5;entryDx=0;entryDy=0;" edge="1" parent="1" source="YbW9ss1DQaH2BDNnPhTK-109" target="YbW9ss1DQaH2BDNnPhTK-111">
          <mxGeometry relative="1" as="geometry" />
        </mxCell>
        <mxCell id="YbW9ss1DQaH2BDNnPhTK-109" value="" style="rounded=1;whiteSpace=wrap;html=1;fillColor=#f5f5f5;fontColor=#333333;strokeColor=#666666;" vertex="1" parent="1">
          <mxGeometry x="911.22" y="220" width="160" height="370" as="geometry" />
        </mxCell>
        <mxCell id="YbW9ss1DQaH2BDNnPhTK-110" value="Software Design" style="text;html=1;strokeColor=none;fillColor=none;align=center;verticalAlign=middle;whiteSpace=wrap;rounded=0;" vertex="1" parent="1">
          <mxGeometry x="903.72" y="230" width="175" height="30" as="geometry" />
        </mxCell>
        <mxCell id="YbW9ss1DQaH2BDNnPhTK-140" style="edgeStyle=orthogonalEdgeStyle;rounded=0;orthogonalLoop=1;jettySize=auto;html=1;entryX=0;entryY=0.5;entryDx=0;entryDy=0;" edge="1" parent="1" source="YbW9ss1DQaH2BDNnPhTK-102" target="YbW9ss1DQaH2BDNnPhTK-109">
          <mxGeometry relative="1" as="geometry" />
        </mxCell>
        <mxCell id="YbW9ss1DQaH2BDNnPhTK-102" value="" style="rounded=1;whiteSpace=wrap;html=1;fillColor=#f5f5f5;fontColor=#333333;strokeColor=#666666;" vertex="1" parent="1">
          <mxGeometry x="663.72" y="225" width="160" height="360" as="geometry" />
        </mxCell>
        <mxCell id="YbW9ss1DQaH2BDNnPhTK-139" style="edgeStyle=orthogonalEdgeStyle;rounded=0;orthogonalLoop=1;jettySize=auto;html=1;entryX=0;entryY=0.5;entryDx=0;entryDy=0;" edge="1" parent="1" source="YbW9ss1DQaH2BDNnPhTK-98" target="YbW9ss1DQaH2BDNnPhTK-102">
          <mxGeometry relative="1" as="geometry" />
        </mxCell>
        <mxCell id="YbW9ss1DQaH2BDNnPhTK-98" value="" style="rounded=1;whiteSpace=wrap;html=1;fillColor=#f5f5f5;strokeColor=#666666;fontColor=#333333;" vertex="1" parent="1">
          <mxGeometry x="226.86" y="250" width="360" height="310" as="geometry" />
        </mxCell>
        <mxCell id="YbW9ss1DQaH2BDNnPhTK-68" style="edgeStyle=orthogonalEdgeStyle;rounded=0;orthogonalLoop=1;jettySize=auto;html=1;entryX=1;entryY=0.5;entryDx=0;entryDy=0;" edge="1" parent="1" source="YbW9ss1DQaH2BDNnPhTK-59" target="YbW9ss1DQaH2BDNnPhTK-45">
          <mxGeometry relative="1" as="geometry">
            <Array as="points">
              <mxPoint x="1896.86" y="1105" />
              <mxPoint x="1896.86" y="770" />
            </Array>
          </mxGeometry>
        </mxCell>
        <mxCell id="YbW9ss1DQaH2BDNnPhTK-59" value="" style="rounded=1;whiteSpace=wrap;html=1;fillColor=#dae8fc;strokeColor=#6c8ebf;" vertex="1" parent="1">
          <mxGeometry x="1716.86" y="978.75" width="160" height="270" as="geometry" />
        </mxCell>
        <mxCell id="YbW9ss1DQaH2BDNnPhTK-62" style="edgeStyle=orthogonalEdgeStyle;rounded=0;orthogonalLoop=1;jettySize=auto;html=1;" edge="1" parent="1" source="YbW9ss1DQaH2BDNnPhTK-54" target="YbW9ss1DQaH2BDNnPhTK-59">
          <mxGeometry relative="1" as="geometry" />
        </mxCell>
        <mxCell id="YbW9ss1DQaH2BDNnPhTK-54" value="" style="rounded=1;whiteSpace=wrap;html=1;fillColor=#dae8fc;strokeColor=#6c8ebf;" vertex="1" parent="1">
          <mxGeometry x="1516.86" y="938.75" width="160" height="350" as="geometry" />
        </mxCell>
        <mxCell id="YbW9ss1DQaH2BDNnPhTK-55" value="Model Monitoring" style="text;html=1;strokeColor=none;fillColor=none;align=center;verticalAlign=middle;whiteSpace=wrap;rounded=0;" vertex="1" parent="1">
          <mxGeometry x="1526.86" y="948.75" width="140" height="30" as="geometry" />
        </mxCell>
        <mxCell id="YbW9ss1DQaH2BDNnPhTK-86" style="edgeStyle=orthogonalEdgeStyle;rounded=0;orthogonalLoop=1;jettySize=auto;html=1;entryX=0.5;entryY=1;entryDx=0;entryDy=0;" edge="1" parent="1" source="YbW9ss1DQaH2BDNnPhTK-49" target="YbW9ss1DQaH2BDNnPhTK-54">
          <mxGeometry relative="1" as="geometry">
            <Array as="points">
              <mxPoint x="1596.86" y="1460" />
            </Array>
          </mxGeometry>
        </mxCell>
        <mxCell id="YbW9ss1DQaH2BDNnPhTK-49" value="" style="rounded=1;whiteSpace=wrap;html=1;fillColor=#fff2cc;strokeColor=#d6b656;" vertex="1" parent="1">
          <mxGeometry x="1046.8600000000001" y="1380" width="480" height="160" as="geometry" />
        </mxCell>
        <mxCell id="YbW9ss1DQaH2BDNnPhTK-69" style="edgeStyle=orthogonalEdgeStyle;rounded=0;orthogonalLoop=1;jettySize=auto;html=1;exitX=0;exitY=0.5;exitDx=0;exitDy=0;entryX=0;entryY=0.5;entryDx=0;entryDy=0;" edge="1" parent="1" source="YbW9ss1DQaH2BDNnPhTK-45" target="YbW9ss1DQaH2BDNnPhTK-21">
          <mxGeometry relative="1" as="geometry">
            <Array as="points">
              <mxPoint x="456.86" y="770" />
              <mxPoint x="456.86" y="1115" />
            </Array>
          </mxGeometry>
        </mxCell>
        <mxCell id="YbW9ss1DQaH2BDNnPhTK-45" value="" style="rounded=1;whiteSpace=wrap;html=1;fillColor=#fff2cc;strokeColor=#d6b656;" vertex="1" parent="1">
          <mxGeometry x="776.86" y="680" width="480" height="180" as="geometry" />
        </mxCell>
        <mxCell id="YbW9ss1DQaH2BDNnPhTK-58" style="edgeStyle=orthogonalEdgeStyle;rounded=0;orthogonalLoop=1;jettySize=auto;html=1;entryX=0;entryY=0.5;entryDx=0;entryDy=0;" edge="1" parent="1" source="YbW9ss1DQaH2BDNnPhTK-40" target="YbW9ss1DQaH2BDNnPhTK-54">
          <mxGeometry relative="1" as="geometry" />
        </mxCell>
        <mxCell id="YbW9ss1DQaH2BDNnPhTK-40" value="" style="rounded=1;whiteSpace=wrap;html=1;fillColor=#ffe6cc;strokeColor=#d79b00;" vertex="1" parent="1">
          <mxGeometry x="1316.86" y="979.37" width="160" height="270" as="geometry" />
        </mxCell>
        <mxCell id="YbW9ss1DQaH2BDNnPhTK-41" value="Model maintenance" style="text;html=1;strokeColor=none;fillColor=none;align=center;verticalAlign=middle;whiteSpace=wrap;rounded=0;" vertex="1" parent="1">
          <mxGeometry x="1326.86" y="992.5" width="140" height="30" as="geometry" />
        </mxCell>
        <mxCell id="YbW9ss1DQaH2BDNnPhTK-57" style="edgeStyle=orthogonalEdgeStyle;rounded=0;orthogonalLoop=1;jettySize=auto;html=1;entryX=0;entryY=0.5;entryDx=0;entryDy=0;" edge="1" parent="1" source="YbW9ss1DQaH2BDNnPhTK-35" target="YbW9ss1DQaH2BDNnPhTK-40">
          <mxGeometry relative="1" as="geometry" />
        </mxCell>
        <mxCell id="YbW9ss1DQaH2BDNnPhTK-35" value="" style="rounded=1;whiteSpace=wrap;html=1;fillColor=#ffe6cc;strokeColor=#d79b00;" vertex="1" parent="1">
          <mxGeometry x="1116.8600000000001" y="902.19" width="160" height="424.37" as="geometry" />
        </mxCell>
        <mxCell id="YbW9ss1DQaH2BDNnPhTK-53" style="edgeStyle=orthogonalEdgeStyle;rounded=0;orthogonalLoop=1;jettySize=auto;html=1;entryX=0;entryY=0.5;entryDx=0;entryDy=0;" edge="1" parent="1" source="YbW9ss1DQaH2BDNnPhTK-33" target="YbW9ss1DQaH2BDNnPhTK-35">
          <mxGeometry relative="1" as="geometry" />
        </mxCell>
        <mxCell id="YbW9ss1DQaH2BDNnPhTK-85" style="edgeStyle=orthogonalEdgeStyle;rounded=0;orthogonalLoop=1;jettySize=auto;html=1;entryX=0;entryY=0.5;entryDx=0;entryDy=0;" edge="1" parent="1" source="YbW9ss1DQaH2BDNnPhTK-33" target="YbW9ss1DQaH2BDNnPhTK-49">
          <mxGeometry relative="1" as="geometry" />
        </mxCell>
        <mxCell id="YbW9ss1DQaH2BDNnPhTK-33" value="" style="rounded=1;whiteSpace=wrap;html=1;fillColor=#ffe6cc;strokeColor=#d79b00;" vertex="1" parent="1">
          <mxGeometry x="916.8600000000001" y="940" width="160" height="348.75" as="geometry" />
        </mxCell>
        <mxCell id="YbW9ss1DQaH2BDNnPhTK-39" style="edgeStyle=orthogonalEdgeStyle;rounded=0;orthogonalLoop=1;jettySize=auto;html=1;" edge="1" parent="1" source="YbW9ss1DQaH2BDNnPhTK-22" target="YbW9ss1DQaH2BDNnPhTK-33">
          <mxGeometry relative="1" as="geometry" />
        </mxCell>
        <mxCell id="YbW9ss1DQaH2BDNnPhTK-22" value="" style="rounded=1;whiteSpace=wrap;html=1;fillColor=#d5e8d4;strokeColor=#82b366;" vertex="1" parent="1">
          <mxGeometry x="696.86" y="980" width="160" height="270" as="geometry" />
        </mxCell>
        <mxCell id="YbW9ss1DQaH2BDNnPhTK-25" style="edgeStyle=orthogonalEdgeStyle;rounded=0;orthogonalLoop=1;jettySize=auto;html=1;entryX=0;entryY=0.5;entryDx=0;entryDy=0;" edge="1" parent="1" source="YbW9ss1DQaH2BDNnPhTK-21" target="YbW9ss1DQaH2BDNnPhTK-22">
          <mxGeometry relative="1" as="geometry" />
        </mxCell>
        <mxCell id="YbW9ss1DQaH2BDNnPhTK-21" value="" style="rounded=1;whiteSpace=wrap;html=1;fillColor=#d5e8d4;strokeColor=#82b366;" vertex="1" parent="1">
          <mxGeometry x="496.86" y="900" width="160" height="430" as="geometry" />
        </mxCell>
        <mxCell id="YbW9ss1DQaH2BDNnPhTK-15" style="edgeStyle=orthogonalEdgeStyle;rounded=0;orthogonalLoop=1;jettySize=auto;html=1;entryX=0.5;entryY=0;entryDx=0;entryDy=0;" edge="1" parent="1" source="kaERhTLtpsJKJupnDDFS-1" target="kaERhTLtpsJKJupnDDFS-3">
          <mxGeometry relative="1" as="geometry" />
        </mxCell>
        <mxCell id="kaERhTLtpsJKJupnDDFS-1" value="Raw data" style="rounded=0;whiteSpace=wrap;html=1;" parent="1" vertex="1">
          <mxGeometry x="516.86" y="950" width="120" height="40" as="geometry" />
        </mxCell>
        <mxCell id="YbW9ss1DQaH2BDNnPhTK-18" style="edgeStyle=orthogonalEdgeStyle;rounded=0;orthogonalLoop=1;jettySize=auto;html=1;exitX=0.25;exitY=1;exitDx=0;exitDy=0;entryX=0.25;entryY=0;entryDx=0;entryDy=0;" edge="1" parent="1" source="kaERhTLtpsJKJupnDDFS-2" target="kaERhTLtpsJKJupnDDFS-5">
          <mxGeometry relative="1" as="geometry" />
        </mxCell>
        <mxCell id="kaERhTLtpsJKJupnDDFS-2" value="Data Transformation" style="rounded=0;whiteSpace=wrap;html=1;" parent="1" vertex="1">
          <mxGeometry x="516.86" y="1110" width="120" height="40" as="geometry" />
        </mxCell>
        <mxCell id="YbW9ss1DQaH2BDNnPhTK-16" style="edgeStyle=orthogonalEdgeStyle;rounded=0;orthogonalLoop=1;jettySize=auto;html=1;entryX=0.5;entryY=0;entryDx=0;entryDy=0;" edge="1" parent="1" source="kaERhTLtpsJKJupnDDFS-3" target="kaERhTLtpsJKJupnDDFS-2">
          <mxGeometry relative="1" as="geometry" />
        </mxCell>
        <mxCell id="kaERhTLtpsJKJupnDDFS-3" value="Data Cleaning" style="rounded=0;whiteSpace=wrap;html=1;" parent="1" vertex="1">
          <mxGeometry x="516.86" y="1030" width="120" height="40" as="geometry" />
        </mxCell>
        <mxCell id="kaERhTLtpsJKJupnDDFS-4" value="Feature Engineering" style="rounded=0;whiteSpace=wrap;html=1;" parent="1" vertex="1">
          <mxGeometry x="516.86" y="1270" width="120" height="40" as="geometry" />
        </mxCell>
        <mxCell id="YbW9ss1DQaH2BDNnPhTK-19" style="edgeStyle=orthogonalEdgeStyle;rounded=0;orthogonalLoop=1;jettySize=auto;html=1;exitX=0.75;exitY=0;exitDx=0;exitDy=0;entryX=0.75;entryY=1;entryDx=0;entryDy=0;" edge="1" parent="1" source="kaERhTLtpsJKJupnDDFS-5" target="kaERhTLtpsJKJupnDDFS-2">
          <mxGeometry relative="1" as="geometry" />
        </mxCell>
        <mxCell id="YbW9ss1DQaH2BDNnPhTK-20" style="edgeStyle=orthogonalEdgeStyle;rounded=0;orthogonalLoop=1;jettySize=auto;html=1;entryX=0.5;entryY=0;entryDx=0;entryDy=0;" edge="1" parent="1" source="kaERhTLtpsJKJupnDDFS-5" target="kaERhTLtpsJKJupnDDFS-4">
          <mxGeometry relative="1" as="geometry" />
        </mxCell>
        <mxCell id="kaERhTLtpsJKJupnDDFS-5" value="Exploratory Data Analysis" style="rounded=0;whiteSpace=wrap;html=1;" parent="1" vertex="1">
          <mxGeometry x="516.86" y="1190" width="120" height="40" as="geometry" />
        </mxCell>
        <mxCell id="YbW9ss1DQaH2BDNnPhTK-32" value="" style="edgeStyle=orthogonalEdgeStyle;rounded=0;orthogonalLoop=1;jettySize=auto;html=1;" edge="1" parent="1" source="kaERhTLtpsJKJupnDDFS-6" target="kaERhTLtpsJKJupnDDFS-7">
          <mxGeometry relative="1" as="geometry" />
        </mxCell>
        <mxCell id="kaERhTLtpsJKJupnDDFS-6" value="Data Augmentation" style="rounded=0;whiteSpace=wrap;html=1;" parent="1" vertex="1">
          <mxGeometry x="716.86" y="1110" width="120" height="40" as="geometry" />
        </mxCell>
        <mxCell id="kaERhTLtpsJKJupnDDFS-7" value="Data Preprocessing" style="rounded=0;whiteSpace=wrap;html=1;" parent="1" vertex="1">
          <mxGeometry x="716.86" y="1190" width="120" height="40" as="geometry" />
        </mxCell>
        <mxCell id="YbW9ss1DQaH2BDNnPhTK-38" style="edgeStyle=orthogonalEdgeStyle;rounded=0;orthogonalLoop=1;jettySize=auto;html=1;entryX=0.5;entryY=0;entryDx=0;entryDy=0;" edge="1" parent="1" source="kaERhTLtpsJKJupnDDFS-8" target="kaERhTLtpsJKJupnDDFS-9">
          <mxGeometry relative="1" as="geometry" />
        </mxCell>
        <mxCell id="kaERhTLtpsJKJupnDDFS-8" value="Model definition" style="rounded=0;whiteSpace=wrap;html=1;" parent="1" vertex="1">
          <mxGeometry x="936.8600000000001" y="990" width="120" height="40" as="geometry" />
        </mxCell>
        <mxCell id="YbW9ss1DQaH2BDNnPhTK-51" style="edgeStyle=orthogonalEdgeStyle;rounded=0;orthogonalLoop=1;jettySize=auto;html=1;entryX=0.5;entryY=0;entryDx=0;entryDy=0;" edge="1" parent="1" source="kaERhTLtpsJKJupnDDFS-9" target="kaERhTLtpsJKJupnDDFS-10">
          <mxGeometry relative="1" as="geometry" />
        </mxCell>
        <mxCell id="kaERhTLtpsJKJupnDDFS-9" value="Model Hyperparameters" style="rounded=0;whiteSpace=wrap;html=1;" parent="1" vertex="1">
          <mxGeometry x="936.8600000000001" y="1060" width="120" height="50" as="geometry" />
        </mxCell>
        <mxCell id="YbW9ss1DQaH2BDNnPhTK-52" style="edgeStyle=orthogonalEdgeStyle;rounded=0;orthogonalLoop=1;jettySize=auto;html=1;" edge="1" parent="1" source="kaERhTLtpsJKJupnDDFS-10" target="kaERhTLtpsJKJupnDDFS-11">
          <mxGeometry relative="1" as="geometry" />
        </mxCell>
        <mxCell id="kaERhTLtpsJKJupnDDFS-10" value="Train Engine" style="rounded=0;whiteSpace=wrap;html=1;" parent="1" vertex="1">
          <mxGeometry x="936.8600000000001" y="1150" width="120" height="40" as="geometry" />
        </mxCell>
        <mxCell id="kaERhTLtpsJKJupnDDFS-11" value="Inference Engine" style="rounded=0;whiteSpace=wrap;html=1;" parent="1" vertex="1">
          <mxGeometry x="936.8600000000001" y="1230" width="120" height="40" as="geometry" />
        </mxCell>
        <mxCell id="YbW9ss1DQaH2BDNnPhTK-82" style="edgeStyle=orthogonalEdgeStyle;rounded=0;orthogonalLoop=1;jettySize=auto;html=1;entryX=0.5;entryY=0;entryDx=0;entryDy=0;" edge="1" parent="1" source="kaERhTLtpsJKJupnDDFS-12" target="YbW9ss1DQaH2BDNnPhTK-81">
          <mxGeometry relative="1" as="geometry" />
        </mxCell>
        <mxCell id="kaERhTLtpsJKJupnDDFS-12" value="Evaluation" style="rounded=0;whiteSpace=wrap;html=1;" parent="1" vertex="1">
          <mxGeometry x="1136.8600000000001" y="946.5600000000001" width="120" height="40" as="geometry" />
        </mxCell>
        <mxCell id="YbW9ss1DQaH2BDNnPhTK-164" style="edgeStyle=orthogonalEdgeStyle;rounded=0;orthogonalLoop=1;jettySize=auto;html=1;entryX=0.5;entryY=0;entryDx=0;entryDy=0;" edge="1" parent="1" source="kaERhTLtpsJKJupnDDFS-13" target="kaERhTLtpsJKJupnDDFS-14">
          <mxGeometry relative="1" as="geometry" />
        </mxCell>
        <mxCell id="kaERhTLtpsJKJupnDDFS-13" value="Validation set" style="rounded=0;whiteSpace=wrap;html=1;" parent="1" vertex="1">
          <mxGeometry x="1136.8600000000001" y="1107.8100000000002" width="120" height="40" as="geometry" />
        </mxCell>
        <mxCell id="kaERhTLtpsJKJupnDDFS-14" value="Test set" style="rounded=0;whiteSpace=wrap;html=1;" parent="1" vertex="1">
          <mxGeometry x="1136.8600000000001" y="1187.8100000000002" width="120" height="40" as="geometry" />
        </mxCell>
        <mxCell id="YbW9ss1DQaH2BDNnPhTK-170" style="edgeStyle=orthogonalEdgeStyle;rounded=0;orthogonalLoop=1;jettySize=auto;html=1;exitX=0.75;exitY=0;exitDx=0;exitDy=0;entryX=0.75;entryY=1;entryDx=0;entryDy=0;" edge="1" parent="1" source="kaERhTLtpsJKJupnDDFS-15" target="YbW9ss1DQaH2BDNnPhTK-2">
          <mxGeometry relative="1" as="geometry" />
        </mxCell>
        <mxCell id="kaERhTLtpsJKJupnDDFS-15" value="Deployment" style="rounded=0;whiteSpace=wrap;html=1;" parent="1" vertex="1">
          <mxGeometry x="1336.86" y="1110.62" width="120" height="40" as="geometry" />
        </mxCell>
        <mxCell id="YbW9ss1DQaH2BDNnPhTK-167" style="edgeStyle=orthogonalEdgeStyle;rounded=0;orthogonalLoop=1;jettySize=auto;html=1;exitX=0.5;exitY=0;exitDx=0;exitDy=0;entryX=0.5;entryY=1;entryDx=0;entryDy=0;" edge="1" parent="1" source="kaERhTLtpsJKJupnDDFS-16" target="kaERhTLtpsJKJupnDDFS-15">
          <mxGeometry relative="1" as="geometry" />
        </mxCell>
        <mxCell id="kaERhTLtpsJKJupnDDFS-16" value="Serving" style="rounded=0;whiteSpace=wrap;html=1;" parent="1" vertex="1">
          <mxGeometry x="1336.86" y="1190.62" width="120" height="40" as="geometry" />
        </mxCell>
        <mxCell id="YbW9ss1DQaH2BDNnPhTK-171" style="edgeStyle=orthogonalEdgeStyle;rounded=0;orthogonalLoop=1;jettySize=auto;html=1;exitX=0.5;exitY=1;exitDx=0;exitDy=0;entryX=0.5;entryY=0;entryDx=0;entryDy=0;" edge="1" parent="1" source="kaERhTLtpsJKJupnDDFS-17" target="kaERhTLtpsJKJupnDDFS-18">
          <mxGeometry relative="1" as="geometry" />
        </mxCell>
        <mxCell id="kaERhTLtpsJKJupnDDFS-17" value="Load Balancing" style="rounded=0;whiteSpace=wrap;html=1;" parent="1" vertex="1">
          <mxGeometry x="1536.86" y="988.75" width="120" height="40" as="geometry" />
        </mxCell>
        <mxCell id="YbW9ss1DQaH2BDNnPhTK-173" style="edgeStyle=orthogonalEdgeStyle;rounded=0;orthogonalLoop=1;jettySize=auto;html=1;exitX=0.25;exitY=1;exitDx=0;exitDy=0;entryX=0.25;entryY=0;entryDx=0;entryDy=0;" edge="1" parent="1" source="kaERhTLtpsJKJupnDDFS-18" target="kaERhTLtpsJKJupnDDFS-19">
          <mxGeometry relative="1" as="geometry" />
        </mxCell>
        <mxCell id="kaERhTLtpsJKJupnDDFS-18" value="Confidence intervals" style="rounded=0;whiteSpace=wrap;html=1;" parent="1" vertex="1">
          <mxGeometry x="1536.86" y="1068.75" width="120" height="40" as="geometry" />
        </mxCell>
        <mxCell id="YbW9ss1DQaH2BDNnPhTK-174" style="edgeStyle=orthogonalEdgeStyle;rounded=0;orthogonalLoop=1;jettySize=auto;html=1;exitX=0.75;exitY=0;exitDx=0;exitDy=0;entryX=0.75;entryY=1;entryDx=0;entryDy=0;" edge="1" parent="1" source="kaERhTLtpsJKJupnDDFS-19" target="kaERhTLtpsJKJupnDDFS-18">
          <mxGeometry relative="1" as="geometry" />
        </mxCell>
        <mxCell id="YbW9ss1DQaH2BDNnPhTK-176" style="edgeStyle=orthogonalEdgeStyle;rounded=0;orthogonalLoop=1;jettySize=auto;html=1;exitX=0.25;exitY=1;exitDx=0;exitDy=0;entryX=0.25;entryY=0;entryDx=0;entryDy=0;" edge="1" parent="1" source="kaERhTLtpsJKJupnDDFS-19" target="YbW9ss1DQaH2BDNnPhTK-7">
          <mxGeometry relative="1" as="geometry" />
        </mxCell>
        <mxCell id="kaERhTLtpsJKJupnDDFS-19" value="Model Performance" style="rounded=0;whiteSpace=wrap;html=1;" parent="1" vertex="1">
          <mxGeometry x="1536.86" y="1148.75" width="120" height="40" as="geometry" />
        </mxCell>
        <mxCell id="YbW9ss1DQaH2BDNnPhTK-42" style="edgeStyle=orthogonalEdgeStyle;rounded=0;orthogonalLoop=1;jettySize=auto;html=1;entryX=0.5;entryY=0;entryDx=0;entryDy=0;" edge="1" parent="1" source="kaERhTLtpsJKJupnDDFS-20" target="YbW9ss1DQaH2BDNnPhTK-3">
          <mxGeometry relative="1" as="geometry">
            <Array as="points">
              <mxPoint x="986.8600000000001" y="780" />
              <mxPoint x="856.86" y="780" />
            </Array>
          </mxGeometry>
        </mxCell>
        <mxCell id="YbW9ss1DQaH2BDNnPhTK-43" style="edgeStyle=orthogonalEdgeStyle;rounded=0;orthogonalLoop=1;jettySize=auto;html=1;entryX=0.5;entryY=0;entryDx=0;entryDy=0;" edge="1" parent="1" source="kaERhTLtpsJKJupnDDFS-20" target="YbW9ss1DQaH2BDNnPhTK-4">
          <mxGeometry relative="1" as="geometry" />
        </mxCell>
        <mxCell id="YbW9ss1DQaH2BDNnPhTK-44" style="edgeStyle=orthogonalEdgeStyle;rounded=0;orthogonalLoop=1;jettySize=auto;html=1;" edge="1" parent="1" source="kaERhTLtpsJKJupnDDFS-20" target="YbW9ss1DQaH2BDNnPhTK-5">
          <mxGeometry relative="1" as="geometry">
            <Array as="points">
              <mxPoint x="1046.8600000000001" y="780" />
              <mxPoint x="1176.8600000000001" y="780" />
            </Array>
          </mxGeometry>
        </mxCell>
        <mxCell id="kaERhTLtpsJKJupnDDFS-20" value="Configuration file" style="rounded=0;whiteSpace=wrap;html=1;" parent="1" vertex="1">
          <mxGeometry x="956.8600000000001" y="720" width="120" height="40" as="geometry" />
        </mxCell>
        <mxCell id="YbW9ss1DQaH2BDNnPhTK-1" value="Data Versioning" style="rounded=0;whiteSpace=wrap;html=1;" vertex="1" parent="1">
          <mxGeometry x="716.86" y="1030" width="120" height="40" as="geometry" />
        </mxCell>
        <mxCell id="YbW9ss1DQaH2BDNnPhTK-169" style="edgeStyle=orthogonalEdgeStyle;rounded=0;orthogonalLoop=1;jettySize=auto;html=1;exitX=0.25;exitY=1;exitDx=0;exitDy=0;entryX=0.25;entryY=0;entryDx=0;entryDy=0;" edge="1" parent="1" source="YbW9ss1DQaH2BDNnPhTK-2" target="kaERhTLtpsJKJupnDDFS-15">
          <mxGeometry relative="1" as="geometry" />
        </mxCell>
        <mxCell id="YbW9ss1DQaH2BDNnPhTK-2" value="Model Versioning" style="rounded=0;whiteSpace=wrap;html=1;" vertex="1" parent="1">
          <mxGeometry x="1336.86" y="1030.62" width="120" height="40" as="geometry" />
        </mxCell>
        <mxCell id="YbW9ss1DQaH2BDNnPhTK-3" value="Data Config" style="rounded=0;whiteSpace=wrap;html=1;" vertex="1" parent="1">
          <mxGeometry x="796.86" y="800" width="120" height="40" as="geometry" />
        </mxCell>
        <mxCell id="YbW9ss1DQaH2BDNnPhTK-4" value="Model Config" style="rounded=0;whiteSpace=wrap;html=1;" vertex="1" parent="1">
          <mxGeometry x="956.8600000000001" y="800" width="120" height="40" as="geometry" />
        </mxCell>
        <mxCell id="YbW9ss1DQaH2BDNnPhTK-5" value="Deploy Config" style="rounded=0;whiteSpace=wrap;html=1;" vertex="1" parent="1">
          <mxGeometry x="1116.8600000000001" y="800" width="120" height="40" as="geometry" />
        </mxCell>
        <mxCell id="YbW9ss1DQaH2BDNnPhTK-6" value="Code Versioning" style="rounded=0;whiteSpace=wrap;html=1;fillColor=#fff2cc;strokeColor=#d6b656;" vertex="1" parent="1">
          <mxGeometry x="1536.86" y="680" width="120" height="40" as="geometry" />
        </mxCell>
        <mxCell id="YbW9ss1DQaH2BDNnPhTK-177" style="edgeStyle=orthogonalEdgeStyle;rounded=0;orthogonalLoop=1;jettySize=auto;html=1;exitX=0.75;exitY=0;exitDx=0;exitDy=0;entryX=0.75;entryY=1;entryDx=0;entryDy=0;" edge="1" parent="1" source="YbW9ss1DQaH2BDNnPhTK-7" target="kaERhTLtpsJKJupnDDFS-19">
          <mxGeometry relative="1" as="geometry" />
        </mxCell>
        <mxCell id="YbW9ss1DQaH2BDNnPhTK-7" value="Continuous data collection" style="rounded=0;whiteSpace=wrap;html=1;" vertex="1" parent="1">
          <mxGeometry x="1536.86" y="1228.75" width="120" height="40" as="geometry" />
        </mxCell>
        <mxCell id="YbW9ss1DQaH2BDNnPhTK-162" style="edgeStyle=orthogonalEdgeStyle;rounded=0;orthogonalLoop=1;jettySize=auto;html=1;entryX=0.5;entryY=1;entryDx=0;entryDy=0;" edge="1" parent="1" source="YbW9ss1DQaH2BDNnPhTK-8" target="YbW9ss1DQaH2BDNnPhTK-60">
          <mxGeometry relative="1" as="geometry" />
        </mxCell>
        <mxCell id="YbW9ss1DQaH2BDNnPhTK-8" value="Human Validation" style="rounded=0;whiteSpace=wrap;html=1;" vertex="1" parent="1">
          <mxGeometry x="1736.86" y="1187.81" width="120" height="40" as="geometry" />
        </mxCell>
        <mxCell id="YbW9ss1DQaH2BDNnPhTK-160" style="edgeStyle=orthogonalEdgeStyle;rounded=0;orthogonalLoop=1;jettySize=auto;html=1;exitX=0.25;exitY=1;exitDx=0;exitDy=0;entryX=0.25;entryY=0;entryDx=0;entryDy=0;" edge="1" parent="1" source="YbW9ss1DQaH2BDNnPhTK-9" target="YbW9ss1DQaH2BDNnPhTK-60">
          <mxGeometry relative="1" as="geometry" />
        </mxCell>
        <mxCell id="YbW9ss1DQaH2BDNnPhTK-9" value="Model retraining" style="rounded=0;whiteSpace=wrap;html=1;" vertex="1" parent="1">
          <mxGeometry x="1736.86" y="1028.75" width="120" height="40" as="geometry" />
        </mxCell>
        <mxCell id="YbW9ss1DQaH2BDNnPhTK-165" style="edgeStyle=orthogonalEdgeStyle;rounded=0;orthogonalLoop=1;jettySize=auto;html=1;exitX=0.5;exitY=0;exitDx=0;exitDy=0;entryX=0.5;entryY=1;entryDx=0;entryDy=0;" edge="1" parent="1" source="YbW9ss1DQaH2BDNnPhTK-10" target="kaERhTLtpsJKJupnDDFS-14">
          <mxGeometry relative="1" as="geometry" />
        </mxCell>
        <mxCell id="YbW9ss1DQaH2BDNnPhTK-10" value="Explainability" style="rounded=0;whiteSpace=wrap;html=1;" vertex="1" parent="1">
          <mxGeometry x="1136.8600000000001" y="1266.5600000000002" width="120" height="40" as="geometry" />
        </mxCell>
        <mxCell id="YbW9ss1DQaH2BDNnPhTK-46" style="edgeStyle=orthogonalEdgeStyle;rounded=0;orthogonalLoop=1;jettySize=auto;html=1;exitX=0.25;exitY=1;exitDx=0;exitDy=0;entryX=0.5;entryY=0;entryDx=0;entryDy=0;" edge="1" parent="1" source="YbW9ss1DQaH2BDNnPhTK-11" target="YbW9ss1DQaH2BDNnPhTK-12">
          <mxGeometry relative="1" as="geometry" />
        </mxCell>
        <mxCell id="YbW9ss1DQaH2BDNnPhTK-47" style="edgeStyle=orthogonalEdgeStyle;rounded=0;orthogonalLoop=1;jettySize=auto;html=1;entryX=0.5;entryY=0;entryDx=0;entryDy=0;" edge="1" parent="1" source="YbW9ss1DQaH2BDNnPhTK-11" target="YbW9ss1DQaH2BDNnPhTK-13">
          <mxGeometry relative="1" as="geometry" />
        </mxCell>
        <mxCell id="YbW9ss1DQaH2BDNnPhTK-48" style="edgeStyle=orthogonalEdgeStyle;rounded=0;orthogonalLoop=1;jettySize=auto;html=1;exitX=0.75;exitY=1;exitDx=0;exitDy=0;entryX=0.5;entryY=0;entryDx=0;entryDy=0;" edge="1" parent="1" source="YbW9ss1DQaH2BDNnPhTK-11" target="YbW9ss1DQaH2BDNnPhTK-14">
          <mxGeometry relative="1" as="geometry" />
        </mxCell>
        <mxCell id="YbW9ss1DQaH2BDNnPhTK-11" value="Modelling Hardware" style="rounded=0;whiteSpace=wrap;html=1;" vertex="1" parent="1">
          <mxGeometry x="1226.8600000000001" y="1400" width="120" height="40" as="geometry" />
        </mxCell>
        <mxCell id="YbW9ss1DQaH2BDNnPhTK-12" value="CPU Cluster management" style="rounded=0;whiteSpace=wrap;html=1;" vertex="1" parent="1">
          <mxGeometry x="1066.8600000000001" y="1480" width="120" height="40" as="geometry" />
        </mxCell>
        <mxCell id="YbW9ss1DQaH2BDNnPhTK-13" value="GPU programming" style="rounded=0;whiteSpace=wrap;html=1;" vertex="1" parent="1">
          <mxGeometry x="1226.8600000000001" y="1480" width="120" height="40" as="geometry" />
        </mxCell>
        <mxCell id="YbW9ss1DQaH2BDNnPhTK-14" value="Memory &lt;br&gt;management" style="rounded=0;whiteSpace=wrap;html=1;" vertex="1" parent="1">
          <mxGeometry x="1386.86" y="1480" width="120" height="40" as="geometry" />
        </mxCell>
        <mxCell id="YbW9ss1DQaH2BDNnPhTK-23" value="Data Generation" style="text;html=1;strokeColor=none;fillColor=none;align=center;verticalAlign=middle;whiteSpace=wrap;rounded=0;" vertex="1" parent="1">
          <mxGeometry x="526.86" y="910" width="100" height="30" as="geometry" />
        </mxCell>
        <mxCell id="YbW9ss1DQaH2BDNnPhTK-24" value="Data Maintenance" style="text;html=1;strokeColor=none;fillColor=none;align=center;verticalAlign=middle;whiteSpace=wrap;rounded=0;" vertex="1" parent="1">
          <mxGeometry x="726.86" y="990" width="100" height="30" as="geometry" />
        </mxCell>
        <mxCell id="YbW9ss1DQaH2BDNnPhTK-34" value="Modelling" style="text;html=1;strokeColor=none;fillColor=none;align=center;verticalAlign=middle;whiteSpace=wrap;rounded=0;" vertex="1" parent="1">
          <mxGeometry x="946.8600000000001" y="950" width="100" height="30" as="geometry" />
        </mxCell>
        <mxCell id="YbW9ss1DQaH2BDNnPhTK-36" value="Model selection" style="text;html=1;strokeColor=none;fillColor=none;align=center;verticalAlign=middle;whiteSpace=wrap;rounded=0;" vertex="1" parent="1">
          <mxGeometry x="1126.8600000000001" y="906.5600000000001" width="140" height="30" as="geometry" />
        </mxCell>
        <mxCell id="YbW9ss1DQaH2BDNnPhTK-161" style="edgeStyle=orthogonalEdgeStyle;rounded=0;orthogonalLoop=1;jettySize=auto;html=1;exitX=0.75;exitY=0;exitDx=0;exitDy=0;entryX=0.75;entryY=1;entryDx=0;entryDy=0;" edge="1" parent="1" source="YbW9ss1DQaH2BDNnPhTK-60" target="YbW9ss1DQaH2BDNnPhTK-9">
          <mxGeometry relative="1" as="geometry" />
        </mxCell>
        <mxCell id="YbW9ss1DQaH2BDNnPhTK-60" value="New models" style="rounded=0;whiteSpace=wrap;html=1;" vertex="1" parent="1">
          <mxGeometry x="1736.86" y="1107.81" width="120" height="40" as="geometry" />
        </mxCell>
        <mxCell id="YbW9ss1DQaH2BDNnPhTK-61" value="Human-in-the-loop" style="text;html=1;strokeColor=none;fillColor=none;align=center;verticalAlign=middle;whiteSpace=wrap;rounded=0;" vertex="1" parent="1">
          <mxGeometry x="1726.86" y="991.88" width="140" height="30" as="geometry" />
        </mxCell>
        <mxCell id="YbW9ss1DQaH2BDNnPhTK-66" value="Process Flow Management" style="text;html=1;strokeColor=none;fillColor=none;align=center;verticalAlign=middle;whiteSpace=wrap;rounded=0;" vertex="1" parent="1">
          <mxGeometry x="901.8600000000001" y="690" width="230" height="30" as="geometry" />
        </mxCell>
        <mxCell id="YbW9ss1DQaH2BDNnPhTK-152" style="edgeStyle=orthogonalEdgeStyle;rounded=0;orthogonalLoop=1;jettySize=auto;html=1;exitX=0.25;exitY=1;exitDx=0;exitDy=0;entryX=0.25;entryY=0;entryDx=0;entryDy=0;" edge="1" parent="1" source="YbW9ss1DQaH2BDNnPhTK-70" target="YbW9ss1DQaH2BDNnPhTK-99">
          <mxGeometry relative="1" as="geometry" />
        </mxCell>
        <mxCell id="YbW9ss1DQaH2BDNnPhTK-70" value="Problem Definition" style="rounded=0;whiteSpace=wrap;html=1;" vertex="1" parent="1">
          <mxGeometry x="683.72" y="285" width="120" height="40" as="geometry" />
        </mxCell>
        <mxCell id="YbW9ss1DQaH2BDNnPhTK-114" style="edgeStyle=orthogonalEdgeStyle;rounded=0;orthogonalLoop=1;jettySize=auto;html=1;exitX=0.25;exitY=1;exitDx=0;exitDy=0;entryX=0.25;entryY=0;entryDx=0;entryDy=0;" edge="1" parent="1" source="YbW9ss1DQaH2BDNnPhTK-72" target="YbW9ss1DQaH2BDNnPhTK-74">
          <mxGeometry relative="1" as="geometry" />
        </mxCell>
        <mxCell id="YbW9ss1DQaH2BDNnPhTK-72" value="Heuristic Solution" style="rounded=0;whiteSpace=wrap;html=1;" vertex="1" parent="1">
          <mxGeometry x="1196.5" y="320" width="120" height="40" as="geometry" />
        </mxCell>
        <mxCell id="YbW9ss1DQaH2BDNnPhTK-146" style="edgeStyle=orthogonalEdgeStyle;rounded=0;orthogonalLoop=1;jettySize=auto;html=1;exitX=0.25;exitY=1;exitDx=0;exitDy=0;entryX=0.25;entryY=0;entryDx=0;entryDy=0;" edge="1" parent="1" source="YbW9ss1DQaH2BDNnPhTK-73" target="YbW9ss1DQaH2BDNnPhTK-105">
          <mxGeometry relative="1" as="geometry" />
        </mxCell>
        <mxCell id="YbW9ss1DQaH2BDNnPhTK-73" value="Software Requirements&lt;br&gt;Specification" style="rounded=0;whiteSpace=wrap;html=1;" vertex="1" parent="1">
          <mxGeometry x="931.22" y="270" width="120" height="60" as="geometry" />
        </mxCell>
        <mxCell id="YbW9ss1DQaH2BDNnPhTK-116" style="edgeStyle=orthogonalEdgeStyle;rounded=0;orthogonalLoop=1;jettySize=auto;html=1;exitX=0.25;exitY=1;exitDx=0;exitDy=0;entryX=0.25;entryY=0;entryDx=0;entryDy=0;" edge="1" parent="1" source="YbW9ss1DQaH2BDNnPhTK-74" target="YbW9ss1DQaH2BDNnPhTK-78">
          <mxGeometry relative="1" as="geometry" />
        </mxCell>
        <mxCell id="YbW9ss1DQaH2BDNnPhTK-118" style="edgeStyle=orthogonalEdgeStyle;rounded=0;orthogonalLoop=1;jettySize=auto;html=1;exitX=0.75;exitY=0;exitDx=0;exitDy=0;entryX=0.75;entryY=1;entryDx=0;entryDy=0;" edge="1" parent="1" source="YbW9ss1DQaH2BDNnPhTK-74" target="YbW9ss1DQaH2BDNnPhTK-72">
          <mxGeometry relative="1" as="geometry" />
        </mxCell>
        <mxCell id="YbW9ss1DQaH2BDNnPhTK-74" value="Algorithmic Solution" style="rounded=0;whiteSpace=wrap;html=1;" vertex="1" parent="1">
          <mxGeometry x="1196.5" y="400" width="120" height="40" as="geometry" />
        </mxCell>
        <mxCell id="YbW9ss1DQaH2BDNnPhTK-93" style="edgeStyle=orthogonalEdgeStyle;rounded=0;orthogonalLoop=1;jettySize=auto;html=1;entryX=0.5;entryY=0;entryDx=0;entryDy=0;" edge="1" parent="1" source="YbW9ss1DQaH2BDNnPhTK-76" target="YbW9ss1DQaH2BDNnPhTK-87">
          <mxGeometry relative="1" as="geometry">
            <Array as="points">
              <mxPoint x="366.86" y="360" />
              <mxPoint x="286.86" y="360" />
            </Array>
          </mxGeometry>
        </mxCell>
        <mxCell id="YbW9ss1DQaH2BDNnPhTK-94" style="edgeStyle=orthogonalEdgeStyle;rounded=0;orthogonalLoop=1;jettySize=auto;html=1;" edge="1" parent="1" source="YbW9ss1DQaH2BDNnPhTK-76" target="YbW9ss1DQaH2BDNnPhTK-88">
          <mxGeometry relative="1" as="geometry" />
        </mxCell>
        <mxCell id="YbW9ss1DQaH2BDNnPhTK-95" style="edgeStyle=orthogonalEdgeStyle;rounded=0;orthogonalLoop=1;jettySize=auto;html=1;exitX=0.25;exitY=1;exitDx=0;exitDy=0;entryX=0.5;entryY=0;entryDx=0;entryDy=0;" edge="1" parent="1" source="YbW9ss1DQaH2BDNnPhTK-76" target="YbW9ss1DQaH2BDNnPhTK-90">
          <mxGeometry relative="1" as="geometry">
            <Array as="points">
              <mxPoint x="386.86" y="370" />
              <mxPoint x="346.86" y="370" />
            </Array>
          </mxGeometry>
        </mxCell>
        <mxCell id="YbW9ss1DQaH2BDNnPhTK-96" style="edgeStyle=orthogonalEdgeStyle;rounded=0;orthogonalLoop=1;jettySize=auto;html=1;exitX=1;exitY=1;exitDx=0;exitDy=0;" edge="1" parent="1" source="YbW9ss1DQaH2BDNnPhTK-76" target="YbW9ss1DQaH2BDNnPhTK-89">
          <mxGeometry relative="1" as="geometry" />
        </mxCell>
        <mxCell id="YbW9ss1DQaH2BDNnPhTK-97" style="edgeStyle=orthogonalEdgeStyle;rounded=0;orthogonalLoop=1;jettySize=auto;html=1;exitX=0.75;exitY=1;exitDx=0;exitDy=0;entryX=0.5;entryY=0;entryDx=0;entryDy=0;" edge="1" parent="1" source="YbW9ss1DQaH2BDNnPhTK-76" target="YbW9ss1DQaH2BDNnPhTK-91">
          <mxGeometry relative="1" as="geometry">
            <Array as="points">
              <mxPoint x="426.86" y="370" />
              <mxPoint x="466.86" y="370" />
            </Array>
          </mxGeometry>
        </mxCell>
        <mxCell id="YbW9ss1DQaH2BDNnPhTK-76" value="User Input" style="rounded=0;whiteSpace=wrap;html=1;" vertex="1" parent="1">
          <mxGeometry x="366.86" y="300" width="80" height="40" as="geometry" />
        </mxCell>
        <mxCell id="YbW9ss1DQaH2BDNnPhTK-117" style="edgeStyle=orthogonalEdgeStyle;rounded=0;orthogonalLoop=1;jettySize=auto;html=1;exitX=0.75;exitY=0;exitDx=0;exitDy=0;entryX=0.75;entryY=1;entryDx=0;entryDy=0;" edge="1" parent="1" source="YbW9ss1DQaH2BDNnPhTK-78" target="YbW9ss1DQaH2BDNnPhTK-74">
          <mxGeometry relative="1" as="geometry" />
        </mxCell>
        <mxCell id="YbW9ss1DQaH2BDNnPhTK-78" value="AI Solution" style="rounded=0;whiteSpace=wrap;html=1;" vertex="1" parent="1">
          <mxGeometry x="1196.5" y="480" width="120" height="40" as="geometry" />
        </mxCell>
        <mxCell id="YbW9ss1DQaH2BDNnPhTK-158" style="edgeStyle=orthogonalEdgeStyle;rounded=0;orthogonalLoop=1;jettySize=auto;html=1;entryX=0.5;entryY=0;entryDx=0;entryDy=0;" edge="1" parent="1" source="YbW9ss1DQaH2BDNnPhTK-79" target="YbW9ss1DQaH2BDNnPhTK-80">
          <mxGeometry relative="1" as="geometry" />
        </mxCell>
        <mxCell id="YbW9ss1DQaH2BDNnPhTK-79" value="Post processor" style="rounded=0;whiteSpace=wrap;html=1;" vertex="1" parent="1">
          <mxGeometry x="1446.22" y="360" width="120" height="40" as="geometry" />
        </mxCell>
        <mxCell id="YbW9ss1DQaH2BDNnPhTK-80" value="Response &lt;br&gt;Generation" style="rounded=0;whiteSpace=wrap;html=1;" vertex="1" parent="1">
          <mxGeometry x="1446.22" y="440" width="120" height="40" as="geometry" />
        </mxCell>
        <mxCell id="YbW9ss1DQaH2BDNnPhTK-163" style="edgeStyle=orthogonalEdgeStyle;rounded=0;orthogonalLoop=1;jettySize=auto;html=1;entryX=0.5;entryY=0;entryDx=0;entryDy=0;" edge="1" parent="1" source="YbW9ss1DQaH2BDNnPhTK-81" target="kaERhTLtpsJKJupnDDFS-13">
          <mxGeometry relative="1" as="geometry" />
        </mxCell>
        <mxCell id="YbW9ss1DQaH2BDNnPhTK-81" value="Metrics" style="rounded=0;whiteSpace=wrap;html=1;" vertex="1" parent="1">
          <mxGeometry x="1136.8600000000001" y="1026.56" width="120" height="40" as="geometry" />
        </mxCell>
        <mxCell id="YbW9ss1DQaH2BDNnPhTK-87" value="Text" style="rounded=0;whiteSpace=wrap;html=1;" vertex="1" parent="1">
          <mxGeometry x="246.86" y="380" width="80" height="40" as="geometry" />
        </mxCell>
        <mxCell id="YbW9ss1DQaH2BDNnPhTK-88" value="Audio" style="rounded=0;whiteSpace=wrap;html=1;" vertex="1" parent="1">
          <mxGeometry x="366.86" y="380" width="80" height="40" as="geometry" />
        </mxCell>
        <mxCell id="YbW9ss1DQaH2BDNnPhTK-89" value="Video" style="rounded=0;whiteSpace=wrap;html=1;" vertex="1" parent="1">
          <mxGeometry x="486.86" y="380" width="80" height="40" as="geometry" />
        </mxCell>
        <mxCell id="YbW9ss1DQaH2BDNnPhTK-90" value="Computer Interactions" style="rounded=0;whiteSpace=wrap;html=1;" vertex="1" parent="1">
          <mxGeometry x="306.86" y="440" width="80" height="40" as="geometry" />
        </mxCell>
        <mxCell id="YbW9ss1DQaH2BDNnPhTK-91" value="Physical Interactions" style="rounded=0;whiteSpace=wrap;html=1;" vertex="1" parent="1">
          <mxGeometry x="426.86" y="440" width="80" height="40" as="geometry" />
        </mxCell>
        <mxCell id="YbW9ss1DQaH2BDNnPhTK-92" value="..." style="rounded=0;whiteSpace=wrap;html=1;" vertex="1" parent="1">
          <mxGeometry x="366.86" y="500" width="80" height="40" as="geometry" />
        </mxCell>
        <mxCell id="YbW9ss1DQaH2BDNnPhTK-153" style="edgeStyle=orthogonalEdgeStyle;rounded=0;orthogonalLoop=1;jettySize=auto;html=1;exitX=0.25;exitY=1;exitDx=0;exitDy=0;entryX=0.25;entryY=0;entryDx=0;entryDy=0;" edge="1" parent="1" source="YbW9ss1DQaH2BDNnPhTK-99" target="YbW9ss1DQaH2BDNnPhTK-100">
          <mxGeometry relative="1" as="geometry" />
        </mxCell>
        <mxCell id="YbW9ss1DQaH2BDNnPhTK-157" style="edgeStyle=orthogonalEdgeStyle;rounded=0;orthogonalLoop=1;jettySize=auto;html=1;exitX=0.75;exitY=0;exitDx=0;exitDy=0;entryX=0.75;entryY=1;entryDx=0;entryDy=0;" edge="1" parent="1" source="YbW9ss1DQaH2BDNnPhTK-99" target="YbW9ss1DQaH2BDNnPhTK-70">
          <mxGeometry relative="1" as="geometry" />
        </mxCell>
        <mxCell id="YbW9ss1DQaH2BDNnPhTK-99" value="Brainstorm features" style="rounded=0;whiteSpace=wrap;html=1;" vertex="1" parent="1">
          <mxGeometry x="683.72" y="365" width="120" height="40" as="geometry" />
        </mxCell>
        <mxCell id="YbW9ss1DQaH2BDNnPhTK-154" style="edgeStyle=orthogonalEdgeStyle;rounded=0;orthogonalLoop=1;jettySize=auto;html=1;exitX=0.25;exitY=1;exitDx=0;exitDy=0;entryX=0.25;entryY=0;entryDx=0;entryDy=0;" edge="1" parent="1" source="YbW9ss1DQaH2BDNnPhTK-100" target="YbW9ss1DQaH2BDNnPhTK-101">
          <mxGeometry relative="1" as="geometry" />
        </mxCell>
        <mxCell id="YbW9ss1DQaH2BDNnPhTK-156" style="edgeStyle=orthogonalEdgeStyle;rounded=0;orthogonalLoop=1;jettySize=auto;html=1;exitX=0.75;exitY=0;exitDx=0;exitDy=0;entryX=0.75;entryY=1;entryDx=0;entryDy=0;" edge="1" parent="1" source="YbW9ss1DQaH2BDNnPhTK-100" target="YbW9ss1DQaH2BDNnPhTK-99">
          <mxGeometry relative="1" as="geometry" />
        </mxCell>
        <mxCell id="YbW9ss1DQaH2BDNnPhTK-100" value="Analyse risk" style="rounded=0;whiteSpace=wrap;html=1;" vertex="1" parent="1">
          <mxGeometry x="683.72" y="445" width="120" height="40" as="geometry" />
        </mxCell>
        <mxCell id="YbW9ss1DQaH2BDNnPhTK-155" style="edgeStyle=orthogonalEdgeStyle;rounded=0;orthogonalLoop=1;jettySize=auto;html=1;exitX=0.75;exitY=0;exitDx=0;exitDy=0;entryX=0.75;entryY=1;entryDx=0;entryDy=0;" edge="1" parent="1" source="YbW9ss1DQaH2BDNnPhTK-101" target="YbW9ss1DQaH2BDNnPhTK-100">
          <mxGeometry relative="1" as="geometry" />
        </mxCell>
        <mxCell id="YbW9ss1DQaH2BDNnPhTK-101" value="Analyse user impact" style="rounded=0;whiteSpace=wrap;html=1;" vertex="1" parent="1">
          <mxGeometry x="683.72" y="525" width="120" height="40" as="geometry" />
        </mxCell>
        <mxCell id="YbW9ss1DQaH2BDNnPhTK-103" value="Business Opportunity" style="text;html=1;strokeColor=none;fillColor=none;align=center;verticalAlign=middle;whiteSpace=wrap;rounded=0;" vertex="1" parent="1">
          <mxGeometry x="698.72" y="235" width="90" height="30" as="geometry" />
        </mxCell>
        <mxCell id="YbW9ss1DQaH2BDNnPhTK-104" value="Product Demand" style="text;html=1;strokeColor=none;fillColor=none;align=center;verticalAlign=middle;whiteSpace=wrap;rounded=0;" vertex="1" parent="1">
          <mxGeometry x="321.86" y="260" width="170" height="30" as="geometry" />
        </mxCell>
        <mxCell id="YbW9ss1DQaH2BDNnPhTK-147" style="edgeStyle=orthogonalEdgeStyle;rounded=0;orthogonalLoop=1;jettySize=auto;html=1;exitX=0.25;exitY=1;exitDx=0;exitDy=0;entryX=0.25;entryY=0;entryDx=0;entryDy=0;" edge="1" parent="1" source="YbW9ss1DQaH2BDNnPhTK-105" target="YbW9ss1DQaH2BDNnPhTK-106">
          <mxGeometry relative="1" as="geometry" />
        </mxCell>
        <mxCell id="YbW9ss1DQaH2BDNnPhTK-151" style="edgeStyle=orthogonalEdgeStyle;rounded=0;orthogonalLoop=1;jettySize=auto;html=1;exitX=0.75;exitY=0;exitDx=0;exitDy=0;entryX=0.75;entryY=1;entryDx=0;entryDy=0;" edge="1" parent="1" source="YbW9ss1DQaH2BDNnPhTK-105" target="YbW9ss1DQaH2BDNnPhTK-73">
          <mxGeometry relative="1" as="geometry" />
        </mxCell>
        <mxCell id="YbW9ss1DQaH2BDNnPhTK-105" value="Hardware &lt;br&gt;constraints" style="rounded=0;whiteSpace=wrap;html=1;" vertex="1" parent="1">
          <mxGeometry x="931.22" y="370" width="120" height="40" as="geometry" />
        </mxCell>
        <mxCell id="YbW9ss1DQaH2BDNnPhTK-148" style="edgeStyle=orthogonalEdgeStyle;rounded=0;orthogonalLoop=1;jettySize=auto;html=1;exitX=0.25;exitY=1;exitDx=0;exitDy=0;entryX=0.25;entryY=0;entryDx=0;entryDy=0;" edge="1" parent="1" source="YbW9ss1DQaH2BDNnPhTK-106" target="YbW9ss1DQaH2BDNnPhTK-107">
          <mxGeometry relative="1" as="geometry" />
        </mxCell>
        <mxCell id="YbW9ss1DQaH2BDNnPhTK-150" style="edgeStyle=orthogonalEdgeStyle;rounded=0;orthogonalLoop=1;jettySize=auto;html=1;exitX=0.75;exitY=0;exitDx=0;exitDy=0;entryX=0.75;entryY=1;entryDx=0;entryDy=0;" edge="1" parent="1" source="YbW9ss1DQaH2BDNnPhTK-106" target="YbW9ss1DQaH2BDNnPhTK-105">
          <mxGeometry relative="1" as="geometry" />
        </mxCell>
        <mxCell id="YbW9ss1DQaH2BDNnPhTK-106" value="Key Performance Metrics" style="rounded=0;whiteSpace=wrap;html=1;" vertex="1" parent="1">
          <mxGeometry x="931.22" y="450" width="120" height="40" as="geometry" />
        </mxCell>
        <mxCell id="YbW9ss1DQaH2BDNnPhTK-149" style="edgeStyle=orthogonalEdgeStyle;rounded=0;orthogonalLoop=1;jettySize=auto;html=1;exitX=0.75;exitY=0;exitDx=0;exitDy=0;entryX=0.75;entryY=1;entryDx=0;entryDy=0;" edge="1" parent="1" source="YbW9ss1DQaH2BDNnPhTK-107" target="YbW9ss1DQaH2BDNnPhTK-106">
          <mxGeometry relative="1" as="geometry" />
        </mxCell>
        <mxCell id="YbW9ss1DQaH2BDNnPhTK-107" value="Graphical User Interface" style="rounded=0;whiteSpace=wrap;html=1;" vertex="1" parent="1">
          <mxGeometry x="931.22" y="530" width="120" height="40" as="geometry" />
        </mxCell>
        <mxCell id="YbW9ss1DQaH2BDNnPhTK-112" value="Solutions" style="text;html=1;strokeColor=none;fillColor=none;align=center;verticalAlign=middle;whiteSpace=wrap;rounded=0;" vertex="1" parent="1">
          <mxGeometry x="1169" y="280" width="175" height="30" as="geometry" />
        </mxCell>
        <mxCell id="YbW9ss1DQaH2BDNnPhTK-121" style="edgeStyle=orthogonalEdgeStyle;rounded=0;orthogonalLoop=1;jettySize=auto;html=1;exitX=0.5;exitY=1;exitDx=0;exitDy=0;" edge="1" parent="1" source="YbW9ss1DQaH2BDNnPhTK-119" target="YbW9ss1DQaH2BDNnPhTK-119">
          <mxGeometry relative="1" as="geometry" />
        </mxCell>
        <mxCell id="YbW9ss1DQaH2BDNnPhTK-178" style="edgeStyle=orthogonalEdgeStyle;rounded=0;orthogonalLoop=1;jettySize=auto;html=1;exitX=1;exitY=0.5;exitDx=0;exitDy=0;entryX=0;entryY=0.5;entryDx=0;entryDy=0;" edge="1" parent="1" source="YbW9ss1DQaH2BDNnPhTK-125" target="YbW9ss1DQaH2BDNnPhTK-98">
          <mxGeometry relative="1" as="geometry">
            <Array as="points">
              <mxPoint x="2080" y="405" />
              <mxPoint x="2080" y="1620" />
              <mxPoint x="180" y="1620" />
              <mxPoint x="180" y="405" />
            </Array>
          </mxGeometry>
        </mxCell>
        <mxCell id="YbW9ss1DQaH2BDNnPhTK-125" value="" style="rounded=1;whiteSpace=wrap;html=1;fillColor=#f5f5f5;strokeColor=#666666;fontColor=#333333;" vertex="1" parent="1">
          <mxGeometry x="1666.86" y="250" width="360" height="310" as="geometry" />
        </mxCell>
        <mxCell id="YbW9ss1DQaH2BDNnPhTK-126" style="edgeStyle=orthogonalEdgeStyle;rounded=0;orthogonalLoop=1;jettySize=auto;html=1;entryX=0.5;entryY=0;entryDx=0;entryDy=0;" edge="1" parent="1" source="YbW9ss1DQaH2BDNnPhTK-131" target="YbW9ss1DQaH2BDNnPhTK-132">
          <mxGeometry relative="1" as="geometry">
            <Array as="points">
              <mxPoint x="1806.86" y="360" />
              <mxPoint x="1726.86" y="360" />
            </Array>
          </mxGeometry>
        </mxCell>
        <mxCell id="YbW9ss1DQaH2BDNnPhTK-127" style="edgeStyle=orthogonalEdgeStyle;rounded=0;orthogonalLoop=1;jettySize=auto;html=1;" edge="1" parent="1" source="YbW9ss1DQaH2BDNnPhTK-131" target="YbW9ss1DQaH2BDNnPhTK-133">
          <mxGeometry relative="1" as="geometry" />
        </mxCell>
        <mxCell id="YbW9ss1DQaH2BDNnPhTK-128" style="edgeStyle=orthogonalEdgeStyle;rounded=0;orthogonalLoop=1;jettySize=auto;html=1;exitX=0.25;exitY=1;exitDx=0;exitDy=0;entryX=0.5;entryY=0;entryDx=0;entryDy=0;" edge="1" parent="1" source="YbW9ss1DQaH2BDNnPhTK-131" target="YbW9ss1DQaH2BDNnPhTK-135">
          <mxGeometry relative="1" as="geometry">
            <Array as="points">
              <mxPoint x="1826.86" y="370" />
              <mxPoint x="1786.86" y="370" />
            </Array>
          </mxGeometry>
        </mxCell>
        <mxCell id="YbW9ss1DQaH2BDNnPhTK-129" style="edgeStyle=orthogonalEdgeStyle;rounded=0;orthogonalLoop=1;jettySize=auto;html=1;exitX=1;exitY=1;exitDx=0;exitDy=0;" edge="1" parent="1" source="YbW9ss1DQaH2BDNnPhTK-131" target="YbW9ss1DQaH2BDNnPhTK-134">
          <mxGeometry relative="1" as="geometry" />
        </mxCell>
        <mxCell id="YbW9ss1DQaH2BDNnPhTK-130" style="edgeStyle=orthogonalEdgeStyle;rounded=0;orthogonalLoop=1;jettySize=auto;html=1;exitX=0.75;exitY=1;exitDx=0;exitDy=0;entryX=0.5;entryY=0;entryDx=0;entryDy=0;" edge="1" parent="1" source="YbW9ss1DQaH2BDNnPhTK-131" target="YbW9ss1DQaH2BDNnPhTK-136">
          <mxGeometry relative="1" as="geometry">
            <Array as="points">
              <mxPoint x="1866.86" y="370" />
              <mxPoint x="1906.86" y="370" />
            </Array>
          </mxGeometry>
        </mxCell>
        <mxCell id="YbW9ss1DQaH2BDNnPhTK-131" value="Response" style="rounded=0;whiteSpace=wrap;html=1;" vertex="1" parent="1">
          <mxGeometry x="1806.86" y="300" width="80" height="40" as="geometry" />
        </mxCell>
        <mxCell id="YbW9ss1DQaH2BDNnPhTK-132" value="Text" style="rounded=0;whiteSpace=wrap;html=1;" vertex="1" parent="1">
          <mxGeometry x="1686.86" y="380" width="80" height="40" as="geometry" />
        </mxCell>
        <mxCell id="YbW9ss1DQaH2BDNnPhTK-133" value="Audio" style="rounded=0;whiteSpace=wrap;html=1;" vertex="1" parent="1">
          <mxGeometry x="1806.86" y="380" width="80" height="40" as="geometry" />
        </mxCell>
        <mxCell id="YbW9ss1DQaH2BDNnPhTK-134" value="Video" style="rounded=0;whiteSpace=wrap;html=1;" vertex="1" parent="1">
          <mxGeometry x="1926.86" y="380" width="80" height="40" as="geometry" />
        </mxCell>
        <mxCell id="YbW9ss1DQaH2BDNnPhTK-135" value="Computer Interactions" style="rounded=0;whiteSpace=wrap;html=1;" vertex="1" parent="1">
          <mxGeometry x="1746.86" y="440" width="80" height="40" as="geometry" />
        </mxCell>
        <mxCell id="YbW9ss1DQaH2BDNnPhTK-136" value="Physical Interactions" style="rounded=0;whiteSpace=wrap;html=1;" vertex="1" parent="1">
          <mxGeometry x="1866.86" y="440" width="80" height="40" as="geometry" />
        </mxCell>
        <mxCell id="YbW9ss1DQaH2BDNnPhTK-137" value="..." style="rounded=0;whiteSpace=wrap;html=1;" vertex="1" parent="1">
          <mxGeometry x="1806.86" y="500" width="80" height="40" as="geometry" />
        </mxCell>
        <mxCell id="YbW9ss1DQaH2BDNnPhTK-138" value="Business Value" style="text;html=1;strokeColor=none;fillColor=none;align=center;verticalAlign=middle;whiteSpace=wrap;rounded=0;" vertex="1" parent="1">
          <mxGeometry x="1761.86" y="260" width="170" height="30" as="geometry" />
        </mxCell>
      </root>
    </mxGraphModel>
  </diagram>
</mxfile>
